<svg xmlns="http://www.w3.org/2000/svg" viewBox="0 0 1200 2380"><title>Wireframe landing escritorio</title><rect width="1200" height="2380" fill="#fafafa"/><rect x="0" y="0" width="1200" height="64" rx="8" fill="#fff" stroke="#9a9a9a" stroke-width="2"/><text x="600.0" y="37.0" text-anchor="middle" font-family="sans-serif" font-size="14" fill="#555">LOGO · Menú · Cómo funciona · Beneficios · Zonas · Preguntas · [Suscríbete]</text><text x="60" y="150" font-family="sans-serif" font-size="34" font-weight="bold" fill="#333">Titular (propuesta de valor)</text><rect x="60" y="175" width="414.0" height="6" rx="3" fill="#cfcfcf"/><rect x="60" y="189" width="414.0" height="6" rx="3" fill="#cfcfcf"/><rect x="60" y="203" width="276.0" height="6" rx="3" fill="#cfcfcf"/><rect x="60" y="230" width="180" height="48" rx="8" fill="#fff" stroke="#9a9a9a" stroke-width="2"/><text x="150.0" y="259.0" text-anchor="middle" font-family="sans-serif" font-size="14" fill="#555">[Suscríbete]</text><rect x="260" y="230" width="220" height="48" rx="8" fill="#fff" stroke="#9a9a9a" stroke-width="2"/><text x="370.0" y="259.0" text-anchor="middle" font-family="sans-serif" font-size="14" fill="#555">[Ver menú]</text><rect x="640" y="100" width="500" height="320" rx="8" fill="#e6e6e6" stroke="#9a9a9a" stroke-width="2"/><path d="M640 100L1140 420M1140 100L640 420" stroke="#9a9a9a"/><text x="600" y="500" text-anchor="middle" font-family="sans-serif" font-size="24" font-weight="bold" fill="#333">Menú de la semana</text><rect x="470" y="515" width="260" height="30" rx="8" fill="#fff" stroke="#9a9a9a" stroke-width="2"/><text x="600.0" y="535.0" text-anchor="middle" font-family="sans-serif" font-size="12" fill="#555">Fecha límite de pedido</text><rect x="60" y="570" width="340" height="330" rx="8" fill="#fff" stroke="#9a9a9a" stroke-width="2"/><rect x="70" y="580" width="320" height="180" rx="8" fill="#e6e6e6" stroke="#9a9a9a" stroke-width="2"/><path d="M70 580L390 760M390 580L70 760" stroke="#9a9a9a"/><rect x="80" y="780" width="270.0" height="6" rx="3" fill="#cfcfcf"/><rect x="80" y="794" width="270.0" height="6" rx="3" fill="#cfcfcf"/><rect x="80" y="808" width="270.0" height="6" rx="3" fill="#cfcfcf"/><rect x="80" y="822" width="180.0" height="6" rx="3" fill="#cfcfcf"/><rect x="430" y="570" width="340" height="330" rx="8" fill="#fff" stroke="#9a9a9a" stroke-width="2"/><rect x="440" y="580" width="320" height="180" rx="8" fill="#e6e6e6" stroke="#9a9a9a" stroke-width="2"/><path d="M440 580L760 760M760 580L440 760" stroke="#9a9a9a"/><rect x="450" y="780" width="270.0" height="6" rx="3" fill="#cfcfcf"/><rect x="450" y="794" width="270.0" height="6" rx="3" fill="#cfcfcf"/><rect x="450" y="808" width="270.0" height="6" rx="3" fill="#cfcfcf"/><rect x="450" y="822" width="180.0" height="6" rx="3" fill="#cfcfcf"/><rect x="800" y="570" width="340" height="330" rx="8" fill="#fff" stroke="#9a9a9a" stroke-width="2"/><rect x="810" y="580" width="320" height="180" rx="8" fill="#e6e6e6" stroke="#9a9a9a" stroke-width="2"/><path d="M810 580L1130 760M1130 580L810 760" stroke="#9a9a9a"/><rect x="820" y="780" width="270.0" height="6" rx="3" fill="#cfcfcf"/><rect x="820" y="794" width="270.0" height="6" rx="3" fill="#cfcfcf"/><rect x="820" y="808" width="270.0" height="6" rx="3" fill="#cfcfcf"/><rect x="820" y="822" width="180.0" height="6" rx="3" fill="#cfcfcf"/><rect x="470" y="920" width="260" height="44" rx="8" fill="#fff" stroke="#9a9a9a" stroke-width="2"/><text x="600.0" y="947.0" text-anchor="middle" font-family="sans-serif" font-size="14" fill="#555">[Pedir por WhatsApp / IG]</text><text x="600" y="1020" text-anchor="middle" font-family="sans-serif" font-size="24" font-weight="bold" fill="#333">Cómo funciona (3 pasos)</text><rect x="60" y="1040" width="340" height="130" rx="8" fill="#fff" stroke="#9a9a9a" stroke-width="2"/><text x="230.0" y="1110.0" text-anchor="middle" font-family="sans-serif" font-size="14" fill="#555">1. Elige el viernes</text><rect x="430" y="1040" width="340" height="130" rx="8" fill="#fff" stroke="#9a9a9a" stroke-width="2"/><text x="600.0" y="1110.0" text-anchor="middle" font-family="sans-serif" font-size="14" fill="#555">2. Cocinamos bajo demanda</text><rect x="800" y="1040" width="340" height="130" rx="8" fill="#fff" stroke="#9a9a9a" stroke-width="2"/><text x="970.0" y="1110.0" text-anchor="middle" font-family="sans-serif" font-size="14" fill="#555">3. Recibe en horario fijo</text><text x="600" y="1230" text-anchor="middle" font-family="sans-serif" font-size="24" font-weight="bold" fill="#333">Beneficios</text><rect x="60" y="1250" width="255" height="140" rx="8" fill="#fff" stroke="#9a9a9a" stroke-width="2"/><text x="187.5" y="1325.0" text-anchor="middle" font-family="sans-serif" font-size="14" fill="#555">Beneficio 1</text><rect x="335" y="1250" width="255" height="140" rx="8" fill="#fff" stroke="#9a9a9a" stroke-width="2"/><text x="462.5" y="1325.0" text-anchor="middle" font-family="sans-serif" font-size="14" fill="#555">Beneficio 2</text><rect x="610" y="1250" width="255" height="140" rx="8" fill="#fff" stroke="#9a9a9a" stroke-width="2"/><text x="737.5" y="1325.0" text-anchor="middle" font-family="sans-serif" font-size="14" fill="#555">Beneficio 3</text><rect x="885" y="1250" width="255" height="140" rx="8" fill="#fff" stroke="#9a9a9a" stroke-width="2"/><text x="1012.5" y="1325.0" text-anchor="middle" font-family="sans-serif" font-size="14" fill="#555">Beneficio 4</text><rect x="0" y="1420" width="1200" height="200" rx="8" fill="#efefef" stroke="#9a9a9a" stroke-width="2"/><text x="600.0" y="1525.0" text-anchor="middle" font-family="sans-serif" font-size="14" fill="#555">Zonas de entrega + horario fijo</text><text x="600" y="1680" text-anchor="middle" font-family="sans-serif" font-size="24" font-weight="bold" fill="#333">Preguntas frecuentes (acordeón)</text><rect x="260" y="1700" width="680" height="48" rx="8" fill="#fff" stroke="#9a9a9a" stroke-width="2"/><text x="600.0" y="1729.0" text-anchor="middle" font-family="sans-serif" font-size="14" fill="#555">Pregunta 1  ▾</text><rect x="260" y="1760" width="680" height="48" rx="8" fill="#fff" stroke="#9a9a9a" stroke-width="2"/><text x="600.0" y="1789.0" text-anchor="middle" font-family="sans-serif" font-size="14" fill="#555">Pregunta 2  ▾</text><rect x="260" y="1820" width="680" height="48" rx="8" fill="#fff" stroke="#9a9a9a" stroke-width="2"/><text x="600.0" y="1849.0" text-anchor="middle" font-family="sans-serif" font-size="14" fill="#555">Pregunta 3  ▾</text><rect x="260" y="1880" width="680" height="48" rx="8" fill="#fff" stroke="#9a9a9a" stroke-width="2"/><text x="600.0" y="1909.0" text-anchor="middle" font-family="sans-serif" font-size="14" fill="#555">Pregunta 4  ▾</text><rect x="260" y="1940" width="680" height="48" rx="8" fill="#fff" stroke="#9a9a9a" stroke-width="2"/><text x="600.0" y="1969.0" text-anchor="middle" font-family="sans-serif" font-size="14" fill="#555">Pregunta 5  ▾</text><rect x="60" y="2020" width="1080" height="160" rx="8" fill="#efefef" stroke="#9a9a9a" stroke-width="2"/><text x="600.0" y="2105.0" text-anchor="middle" font-family="sans-serif" font-size="14" fill="#555">CTA final: [Suscribirme] [WhatsApp] [Instagram]</text><rect x="0" y="2220" width="1200" height="160" rx="8" fill="#fff" stroke="#9a9a9a" stroke-width="2"/><text x="600.0" y="2305.0" text-anchor="middle" font-family="sans-serif" font-size="14" fill="#555">Footer: descripción · secciones · contacto y redes</text></svg>
